<?xml version="1.0" encoding="UTF-8" standalone="no"?>
<!-- Created with Inkscape (http://www.inkscape.org/) -->

<svg
   xmlns:dc="http://purl.org/dc/elements/1.1/"
   xmlns:cc="http://creativecommons.org/ns#"
   xmlns:rdf="http://www.w3.org/1999/02/22-rdf-syntax-ns#"
   xmlns:svg="http://www.w3.org/2000/svg"
   xmlns="http://www.w3.org/2000/svg"
   xmlns:sodipodi="http://sodipodi.sourceforge.net/DTD/sodipodi-0.dtd"
   xmlns:inkscape="http://www.inkscape.org/namespaces/inkscape"
   width="401.06668"
   height="278.91489"
   id="svg147914"
   version="1.1"
   inkscape:version="0.92.1 r15371"
   sodipodi:docname="cas_benchmark_ivmr.svg"
   viewBox="0 0 376 261.4827">
  <sodipodi:namedview
     id="base"
     pagecolor="#ffffff"
     bordercolor="#666666"
     borderopacity="1.0"
     inkscape:pageopacity="0.0"
     inkscape:pageshadow="2"
     inkscape:zoom="1.979899"
     inkscape:cx="285.61021"
     inkscape:cy="129.6121"
     inkscape:document-units="px"
     inkscape:current-layer="layer1"
     showgrid="false"
     inkscape:window-width="1920"
     inkscape:window-height="1016"
     inkscape:window-x="0"
     inkscape:window-y="27"
     inkscape:window-maximized="1"
     fit-margin-top="0"
     fit-margin-left="0"
     fit-margin-right="0"
     fit-margin-bottom="0"
     inkscape:snap-global="false">
    <inkscape:grid
       type="xygrid"
       id="grid147949"
       empspacing="5"
       visible="true"
       enabled="true"
       snapvisiblegridlinesonly="true"
       originx="-139.5"
       originy="-349.49999"
       spacingx="0.99999996"
       spacingy="0.99999998" />
  </sodipodi:namedview>
  <defs
     id="defs147916">
    <marker
       inkscape:stockid="Arrow1Lend"
       orient="auto"
       refY="0"
       refX="0"
       id="marker1716"
       style="overflow:visible"
       inkscape:isstock="true">
      <path
         inkscape:connector-curvature="0"
         id="path1714"
         d="M 0,0 5,-5 -12.5,0 5,5 Z"
         style="fill:#ff0000;fill-opacity:1;fill-rule:evenodd;stroke:#ff0000;stroke-width:1.00000003pt;stroke-opacity:1"
         transform="matrix(-0.8,0,0,-0.8,-10,0)" />
    </marker>
    <marker
       inkscape:stockid="Arrow1Lend"
       orient="auto"
       refY="0"
       refX="0"
       id="marker1700"
       style="overflow:visible"
       inkscape:isstock="true">
      <path
         inkscape:connector-curvature="0"
         id="path1698"
         d="M 0,0 5,-5 -12.5,0 5,5 Z"
         style="fill:#ff0000;fill-opacity:1;fill-rule:evenodd;stroke:#ff0000;stroke-width:1.00000003pt;stroke-opacity:1"
         transform="matrix(-0.8,0,0,-0.8,-10,0)" />
    </marker>
    <marker
       inkscape:stockid="Arrow1Lend"
       orient="auto"
       refY="0"
       refX="0"
       id="marker1690"
       style="overflow:visible"
       inkscape:isstock="true">
      <path
         inkscape:connector-curvature="0"
         id="path1688"
         d="M 0,0 5,-5 -12.5,0 5,5 Z"
         style="fill:#ff0000;fill-opacity:1;fill-rule:evenodd;stroke:#ff0000;stroke-width:1.00000003pt;stroke-opacity:1"
         transform="matrix(-0.8,0,0,-0.8,-10,0)" />
    </marker>
    <marker
       inkscape:stockid="Arrow1Lend"
       orient="auto"
       refY="0"
       refX="0"
       id="marker1336"
       style="overflow:visible"
       inkscape:isstock="true">
      <path
         inkscape:connector-curvature="0"
         id="path1334"
         d="M 0,0 5,-5 -12.5,0 5,5 Z"
         style="fill:#000000;fill-opacity:1;fill-rule:evenodd;stroke:#000000;stroke-width:1.00000003pt;stroke-opacity:1"
         transform="matrix(-0.8,0,0,-0.8,-10,0)" />
    </marker>
    <marker
       inkscape:isstock="true"
       style="overflow:visible"
       id="marker1242"
       refX="0"
       refY="0"
       orient="auto"
       inkscape:stockid="Arrow1Lend">
      <path
         inkscape:connector-curvature="0"
         transform="matrix(-0.8,0,0,-0.8,-10,0)"
         style="fill:#000000;fill-opacity:1;fill-rule:evenodd;stroke:#000000;stroke-width:1.00000003pt;stroke-opacity:1"
         d="M 0,0 5,-5 -12.5,0 5,5 Z"
         id="path1240" />
    </marker>
    <marker
       inkscape:stockid="Arrow1Lend"
       orient="auto"
       refY="0"
       refX="0"
       id="Arrow1Lend"
       style="overflow:visible"
       inkscape:isstock="true">
      <path
         inkscape:connector-curvature="0"
         id="path897"
         d="M 0,0 5,-5 -12.5,0 5,5 Z"
         style="fill:#000000;fill-opacity:1;fill-rule:evenodd;stroke:#000000;stroke-width:1.00000003pt;stroke-opacity:1"
         transform="matrix(-0.8,0,0,-0.8,-10,0)" />
    </marker>
    <marker
       inkscape:stockid="Arrow1Lend"
       orient="auto"
       refY="0"
       refX="0"
       id="Arrow1Lend-5"
       style="overflow:visible"
       inkscape:isstock="true">
      <path
         id="path897-3"
         d="M 0,0 5,-5 -12.5,0 5,5 Z"
         style="fill:#000000;fill-opacity:1;fill-rule:evenodd;stroke:#000000;stroke-width:1.00000003pt;stroke-opacity:1"
         transform="matrix(-0.8,0,0,-0.8,-10,0)"
         inkscape:connector-curvature="0" />
    </marker>
    <marker
       inkscape:stockid="Arrow1Lend"
       orient="auto"
       refY="0"
       refX="0"
       id="marker1716-9"
       style="overflow:visible"
       inkscape:isstock="true">
      <path
         inkscape:connector-curvature="0"
         id="path1714-3"
         d="M 0,0 5,-5 -12.5,0 5,5 Z"
         style="fill:#ff0000;fill-opacity:1;fill-rule:evenodd;stroke:#ff0000;stroke-width:1.00000003pt;stroke-opacity:1"
         transform="matrix(-0.8,0,0,-0.8,-10,0)" />
    </marker>
  </defs>
  <metadata
     id="metadata147919">
    <rdf:RDF>
      <cc:Work
         rdf:about="">
        <dc:format>image/svg+xml</dc:format>
        <dc:type
           rdf:resource="http://purl.org/dc/dcmitype/StillImage" />
        <dc:title></dc:title>
      </cc:Work>
    </rdf:RDF>
  </metadata>
  <g
     inkscape:label="Layer 1"
     inkscape:groupmode="layer"
     id="layer1"
     transform="translate(-139.5,-441.37947)">
    <rect
       style="fill:#c3c3c3;fill-opacity:1;stroke:none;stroke-width:1.64763772;stroke-miterlimit:4;stroke-dasharray:none;stroke-dashoffset:0;stroke-opacity:1"
       id="rect864"
       width="352.39954"
       height="38.671875"
       x="151.21875"
       y="514.20312" />
    <path
       id="path147969"
       style="fill:#dddddd;fill-opacity:1;stroke:#000000;stroke-width:1px;stroke-linecap:butt;stroke-linejoin:miter;stroke-opacity:1"
       d="m 505,557.36218 c 0,0 -34.48341,135 -180,135 -144.08348,0 -175,-135 -175,-135 m -10,0 v -45 h 10 v 45 m -10,0 c 0,0 23.49139,145 185,145 162.18411,0 190,-145 190,-145 0,-45 0,-45 0,-45 h -10 v 45"
       inkscape:connector-curvature="0"
       sodipodi:nodetypes="csccccsccc" />
    <path
       style="fill:#ff8b8b;fill-opacity:1;stroke:none;stroke-width:0.92893833"
       d="m 151.1894,549.79522 h 352.58963 c 0.0328,8.59297 -2.87587,-1.02559 -2.77903,7.56696 0,0 -33.04557,133.65689 -175.9106,133.65689 C 184.26494,691.01907 154,557.36222 154,557.36222 c -0.0967,-8.63331 -2.79163,1.06676 -2.8106,-7.567 z"
       id="path148889"
       inkscape:connector-curvature="0"
       sodipodi:nodetypes="cccscc" />
    <path
       style="fill:none;stroke:#6f0000;stroke-width:5.69999981;stroke-linecap:butt;stroke-linejoin:miter;stroke-miterlimit:4;stroke-dasharray:none;stroke-opacity:1"
       d="m 154,552.36218 h 347 v 5 c 0,0 -33.87734,130.80361 -175.91071,130.80361 C 186.68002,688.16579 154,557.36222 154,557.36222 Z"
       id="path149459"
       inkscape:connector-curvature="0"
       sodipodi:nodetypes="cccscc" />
    <text
       xml:space="preserve"
       style="font-style:normal;font-weight:normal;font-size:7.89176178px;line-height:0%;font-family:sans-serif;letter-spacing:0px;word-spacing:0px;fill:#000000;fill-opacity:1;stroke:none;stroke-width:0.65764683"
       x="166.43687"
       y="535.74615"
       id="text149461"><tspan
         sodipodi:role="line"
         id="tspan149463"
         x="166.43687"
         y="535.74615"
         style="font-style:normal;font-variant:normal;font-weight:bold;font-stretch:normal;font-size:13.15293598px;line-height:1.25;font-family:'URW Palladio L';-inkscape-font-specification:'URW Palladio L Bold';stroke-width:0.65764683">Acier liquide (Cr, Ni, Fe)</tspan></text>
    <text
       xml:space="preserve"
       style="font-style:normal;font-weight:normal;line-height:0%;font-family:sans-serif;letter-spacing:0px;word-spacing:0px;fill:#000000;fill-opacity:1;stroke:none"
       x="277.45261"
       y="606.50922"
       id="text149461-7"><tspan
         sodipodi:role="line"
         id="tspan149463-6"
         x="277.45261"
         y="606.50922"
         style="font-style:normal;font-variant:normal;font-weight:bold;font-stretch:normal;font-size:13.75px;line-height:1.25;font-family:'URW Palladio L';-inkscape-font-specification:'URW Palladio L Bold';text-align:center;text-anchor:middle">Oxyde (UO<tspan
   style="font-size:13.75px;text-align:center;baseline-shift:sub;text-anchor:middle"
   id="tspan868">2</tspan>, ZrO<tspan
   style="font-size:13.75px;text-align:center;baseline-shift:sub;text-anchor:middle"
   id="tspan866">2</tspan>, Zr, U)</tspan><tspan
         sodipodi:role="line"
         x="277.45261"
         y="623.69672"
         style="font-style:normal;font-variant:normal;font-weight:bold;font-stretch:normal;font-size:13.75px;line-height:1.25;font-family:'URW Palladio L';-inkscape-font-specification:'URW Palladio L Bold';text-align:center;text-anchor:middle"
         id="tspan870">Q = 14 MW</tspan></text>
    <text
       xml:space="preserve"
       style="font-style:normal;font-weight:normal;font-size:6.4553175px;line-height:0%;font-family:sans-serif;letter-spacing:0px;word-spacing:0px;fill:#000000;fill-opacity:1;stroke:none;stroke-width:0.53794312"
       x="159.89197"
       y="564.67517"
       id="text149548"><tspan
         sodipodi:role="line"
         id="tspan149550"
         x="159.89197"
         y="564.67517"
         style="font-style:normal;font-variant:normal;font-weight:bold;font-stretch:normal;font-size:11.83474827px;line-height:1.25;font-family:'URW Palladio L';-inkscape-font-specification:'URW Palladio L Bold';fill:#000000;fill-opacity:1;stroke:none;stroke-width:0.53794312">Croûte</tspan></text>
    <text
       xml:space="preserve"
       style="font-style:normal;font-weight:normal;font-size:7.8917613px;line-height:0%;font-family:sans-serif;letter-spacing:0px;word-spacing:0px;fill:#000000;fill-opacity:1;stroke:none;stroke-width:0.65764683"
       x="357.8046"
       y="546.35718"
       id="text149461-3"><tspan
         sodipodi:role="line"
         x="357.8046"
         y="546.35718"
         style="font-style:normal;font-variant:normal;font-weight:bold;font-stretch:normal;font-size:13.15293598px;line-height:1.25;font-family:'URW Palladio L';-inkscape-font-specification:'URW Palladio L Bold';stroke-width:0.65764683"
         id="tspan890">Débit massique</tspan><tspan
         id="tspan3214"
         sodipodi:role="line"
         x="357.8046"
         y="562.79834"
         style="font-style:normal;font-variant:normal;font-weight:bold;font-stretch:normal;font-size:13.15293598px;line-height:1.25;font-family:'URW Palladio L';-inkscape-font-specification:'URW Palladio L Bold';stroke-width:0.65764683">au travers de la</tspan><tspan
         id="tspan3216"
         sodipodi:role="line"
         x="357.8046"
         y="579.2395"
         style="font-style:normal;font-variant:normal;font-weight:bold;font-stretch:normal;font-size:13.15293598px;line-height:1.25;font-family:'URW Palladio L';-inkscape-font-specification:'URW Palladio L Bold';stroke-width:0.65764683">croûte</tspan></text>
    <path
       style="fill:none;stroke:#000000;stroke-width:0.93749994;stroke-linecap:butt;stroke-linejoin:miter;stroke-miterlimit:4;stroke-dasharray:none;stroke-opacity:1;marker-end:url(#Arrow1Lend)"
       d="m 348.62946,538.8125 v 29.46429"
       id="path892"
       inkscape:connector-curvature="0" />
    <path
       style="fill:none;stroke:#ff0000;stroke-width:0.93749994;stroke-linecap:butt;stroke-linejoin:miter;stroke-miterlimit:4;stroke-dasharray:none;stroke-opacity:1;marker-end:url(#marker1716)"
       d="m 430.23452,599.17653 28.69768,17.84264"
       id="path1182"
       inkscape:connector-curvature="0"
       sodipodi:nodetypes="cc" />
    <g
       transform="matrix(1.2580097,0,0,1.2580097,308.46344,393.86184)"
       id="g1824">
      <g
         style="font-style:normal;font-variant:normal;font-weight:normal;font-stretch:normal;letter-spacing:normal;word-spacing:normal;text-anchor:start;fill:none;fill-opacity:1;fill-rule:evenodd;stroke:#000000;stroke-linecap:butt;stroke-linejoin:miter;stroke-miterlimit:10.43299961;stroke-dasharray:none;stroke-dashoffset:0;stroke-opacity:1"
         id="content"
         transform="matrix(0.29104763,0,0,-0.29104763,-50.933335,300.80001)"
         xml:space="preserve"
         stroke-miterlimit="10.433"
         font-style="normal"
         font-variant="normal"
         font-weight="normal"
         font-stretch="normal"
         font-size-adjust="none"
         letter-spacing="normal"
         word-spacing="normal"><path
           style="fill:#000000;stroke-width:0"
           inkscape:connector-curvature="0"
           d="m 477.29,439.57 v 0.01 0.01 0 0.01 0.01 0.01 0 0.01 l 0.01,0.02 v 0.03 0.02 l 0.01,0.02 0.01,0.03 v 0.03 l 0.01,0.02 v 0.03 l 0.01,0.03 0.01,0.03 0.01,0.06 0.02,0.06 v 0.03 l 0.01,0.02 0.01,0.03 v 0.03 l 0.01,0.02 0.01,0.02 v 0.02 l 0.01,0.02 v 0.01 0.01 0.01 0.01 h 0.01 v 0.01 0.01 0 0.01 0 0 0.01 c 0,0.04 0,0.5 -0.59,0.5 -0.5,0 -0.55,-0.16 -0.75,-1 l -2.89,-11.5 c -7.92,-0.25 -15.25,-6.88 -15.25,-13.66 0,-4.73 3.48,-8.67 9.56,-9.01 l 0.25,1.09 c -2.98,0.14 -6.58,1.89 -6.58,6.87 0,5.99 4.3,12.96 11.72,13.6 l -5.14,-20.47 -0.25,-1.09 c -0.39,-1.55 -0.73,-3.15 -1.14,-4.69 -0.59,-2.35 -1.09,-4.24 -1.09,-4.39 0,-0.49 0.34,-0.55 0.59,-0.55 0.25,0 0.36,0.06 0.5,0.2 0.09,0.1 0.41,1.3 0.55,2 l 1.89,7.43 0.25,1.09 5.14,20.47 c 3.78,-0.19 6.62,-2.49 6.62,-6.88 0,-5.87 -4.28,-13 -11.76,-13.59 l -0.25,-1.09 c 8.03,0.25 15.25,6.96 15.25,13.64 0,3.93 -2.64,8.53 -9.57,9.03 z"
           id="path1811" /><path
           style="fill:#000000;stroke-width:0"
           inkscape:connector-curvature="0"
           d="m 503.6,431.62 -0.01,0.41 -0.04,0.4 -0.05,0.4 -0.07,0.39 -0.1,0.39 -0.11,0.38 -0.13,0.37 -0.15,0.37 -0.17,0.36 -0.19,0.35 -0.2,0.34 -0.22,0.33 -0.23,0.32 -0.25,0.31 -0.27,0.29 -0.28,0.29 -0.3,0.27 -0.3,0.26 -0.33,0.24 -0.33,0.23 -0.35,0.22 -0.35,0.2 -0.37,0.18 -0.38,0.17 -0.39,0.15 -0.4,0.13 -0.41,0.11 -0.42,0.1 -0.43,0.07 -0.43,0.05 -0.44,0.04 -0.45,0.01 v -0.99 c 2.06,0 3.53,-0.97 4.3,-2.05 0.97,-1.35 1.08,-3.1 1.08,-4.78 0,-1.67 -0.11,-3.51 -1.13,-4.95 -0.94,-1.31 -2.53,-2.02 -4.25,-2.02 v 0 c -1.28,0 -3.17,0.43 -4.31,2.13 -0.94,1.44 -1.05,3.23 -1.05,4.84 0,1.5 0.03,3.57 1.25,5.05 0.88,1.02 2.35,1.78 4.11,1.78 v 0.99 c -4.8,0 -8.53,-3.77 -8.53,-8.13 0,-4.33 3.83,-7.76 8.53,-7.76 4.7,0 8.55,3.43 8.55,7.76 z"
           id="path1813" /><path
           style="fill:#000000;stroke-width:0"
           inkscape:connector-curvature="0"
           d="m 515.69,432.01 v 0 l -0.01,0.01 v 0 0 0 l -0.01,0.01 v 0 0 l -0.01,0.01 v 0 l -0.01,0.01 -0.01,0.01 -0.01,0.01 -0.01,0.02 -0.01,0.01 -0.01,0.01 -0.02,0.02 -0.01,0.01 -0.01,0.01 -0.02,0.03 -0.03,0.03 -0.01,0.02 -0.01,0.01 -0.01,0.01 -0.02,0.02 -0.01,0.01 v 0.01 l -0.01,0.01 -0.01,0.01 v 0.01 h -0.01 v 0.01 0 l -0.01,0.01 v 0 0 0.01 0 0 0 0.01 c 0,0.1 2.29,2.57 2.61,2.89 1.21,1.36 2.43,2.68 5.2,2.71 v 1.25 c -0.99,-0.06 -1.99,-0.14 -2.94,-0.14 -1.05,0 -2.4,0.04 -3.44,0.14 v -1.25 c 0.58,-0.1 0.69,-0.48 0.69,-0.79 0,-0.08 0,-0.6 -0.51,-1.19 l -2.44,-2.75 -2.89,3.3 c -0.36,0.39 -0.39,0.56 -0.39,0.7 0,0.52 0.48,0.73 0.93,0.73 v 1.25 c -1.28,-0.1 -2.61,-0.14 -3.9,-0.14 -1.03,0 -2.36,0.04 -3.38,0.14 v -1.25 c 1.61,0 2.52,0 3.43,-1.04 l 4.34,-5.02 c 0.05,-0.03 0.28,-0.31 0.28,-0.34 0,-0.11 -2.61,-2.97 -2.95,-3.36 -1.3,-1.39 -2.49,-2.67 -5.27,-2.75 v -1.25 c 1.05,0.06 1.81,0.14 2.89,0.14 1.05,0 2.44,-0.03 3.49,-0.14 v 1.25 c -0.43,0.08 -0.71,0.31 -0.71,0.81 0,0.66 0.39,1.11 0.96,1.7 l 2.43,2.69 3.04,-3.45 c 0.65,-0.74 0.65,-0.81 0.65,-1.02 0,-0.68 -0.8,-0.73 -0.94,-0.73 v -1.25 c 0.32,0.03 2.83,0.14 3.94,0.14 1.11,0 2.24,-0.03 3.35,-0.14 v 1.25 c -2.33,0 -2.61,0.22 -3.43,1.12 z"
           id="path1815" /><path
           style="fill:#000000;stroke-width:0"
           inkscape:connector-curvature="0"
           d="m 492.33,416.23 -5.22,-0.39 v -1.25 c 2.33,0 2.61,-0.25 2.61,-1.96 v -17.84 c 0,-1.5 -0.34,-1.5 -2.61,-1.5 v -1.25 c 0.07,0 2.5,0.14 3.91,0.14 1.31,0 2.61,-0.03 3.94,-0.14 v 1.25 c -2.27,0 -2.63,0 -2.63,1.5 z"
           id="path1817" /><path
           style="fill:#000000;stroke-width:0"
           inkscape:connector-curvature="0"
           d="m 511.98,401.38 v 0.34 0.33 l -0.01,0.32 -0.01,0.31 -0.01,0.15 -0.02,0.14 -0.01,0.15 -0.02,0.14 -0.02,0.15 -0.03,0.14 -0.03,0.13 -0.04,0.14 -0.04,0.14 -0.04,0.13 -0.05,0.13 -0.06,0.13 -0.06,0.13 -0.07,0.13 -0.07,0.12 -0.08,0.13 -0.09,0.12 -0.1,0.13 -0.1,0.12 -0.11,0.12 -0.12,0.12 -0.13,0.13 -0.14,0.12 -0.14,0.12 c -1.43,1.18 -3.1,1.75 -5.16,1.75 -3.31,0 -5.64,-1.27 -5.64,-3.39 0,-1.11 0.76,-1.71 1.67,-1.71 0.94,0 1.64,0.71 1.64,1.64 0,0.6 -0.28,1.33 -1.22,1.6 1.25,0.87 3.27,0.87 3.49,0.87 1.93,0 4.06,-1.28 4.06,-4.22 v -1.08 -0.9 -3.45 c 0,-3.35 -2.92,-4.29 -4.49,-4.29 -1.78,0 -3.45,1.19 -3.45,2.89 0,1.93 1.67,4.61 7.94,4.85 v 0.9 c -1.91,-0.06 -4.2,-0.17 -6.75,-1.1 -3.14,-1.16 -4.11,-3.07 -4.11,-4.65 0,-3 3.62,-3.85 6.09,-3.85 2.78,0 4.43,1.56 5.16,2.92 0.14,-1.42 1.08,-2.75 2.69,-2.75 0.06,0 3.43,0 3.43,3.31 v 1.91 h -1.17 v -1.88 c 0,-0.34 0,-2.01 -1.29,-2.01 -1.29,0 -1.29,1.62 -1.29,2.07 z"
           id="path1819" /><path
           style="fill:#000000;stroke-width:0"
           inkscape:connector-curvature="0"
           d="m 523.23,405.8 h 5.44 v 1.25 h -5.44 v 6.41 h -1.18 c -0.03,-3.12 -1.46,-6.58 -4.8,-6.69 v -0.97 h 3.23 v -9.4 c 0,-3.91 2.93,-4.7 4.88,-4.7 2.34,0 3.94,1.98 3.94,4.73 v 1.92 h -1.19 v -1.89 c 0,-2.36 -1.11,-3.66 -2.47,-3.66 -2.41,0 -2.41,2.93 -2.41,3.57 z"
           id="path1821" /></g>    </g>
    <text
       xml:space="preserve"
       style="font-style:normal;font-weight:normal;font-size:7.8917613px;line-height:0%;font-family:sans-serif;letter-spacing:0px;word-spacing:0px;fill:#000000;fill-opacity:1;stroke:none;stroke-width:0.65764683"
       x="265.20004"
       y="452.34708"
       id="text149461-3-5"><tspan
         id="tspan2173"
         sodipodi:role="line"
         x="265.20004"
         y="452.34708"
         style="font-style:normal;font-variant:normal;font-weight:bold;font-stretch:normal;font-size:13.15293598px;line-height:1.25;font-family:'URW Palladio L';-inkscape-font-specification:'URW Palladio L Bold';text-align:start;text-anchor:start;stroke-width:0.65764683">Débit massique de</tspan><tspan
         id="tspan3182"
         sodipodi:role="line"
         x="265.20004"
         y="468.78824"
         style="font-style:normal;font-variant:normal;font-weight:bold;font-stretch:normal;font-size:13.15293598px;line-height:1.25;font-family:'URW Palladio L';-inkscape-font-specification:'URW Palladio L Bold';text-align:start;text-anchor:start;stroke-width:0.65764683">fonte des structures</tspan><tspan
         id="tspan3184"
         sodipodi:role="line"
         x="265.20004"
         y="485.22943"
         style="font-style:normal;font-variant:normal;font-weight:bold;font-stretch:normal;font-size:13.15293598px;line-height:1.25;font-family:'URW Palladio L';-inkscape-font-specification:'URW Palladio L Bold';text-align:start;text-anchor:start;stroke-width:0.65764683">internes de la cuve</tspan></text>
    <path
       inkscape:connector-curvature="0"
       id="path2661"
       d="m 387.60267,441.37947 v 30.80357"
       style="fill:none;stroke:#000000;stroke-width:0.93749994;stroke-linecap:butt;stroke-linejoin:miter;stroke-miterlimit:4;stroke-dasharray:1.87499984, 0.93749992;stroke-dashoffset:0;stroke-opacity:1" />
    <path
       sodipodi:nodetypes="cc"
       inkscape:connector-curvature="0"
       id="path2663"
       d="m 387.61871,471.21072 v 31.96186"
       style="fill:none;stroke:#000000;stroke-width:0.93749994px;stroke-linecap:butt;stroke-linejoin:miter;stroke-opacity:1;marker-end:url(#marker1336)" />
    <path
       sodipodi:nodetypes="ccac"
       inkscape:connector-curvature="0"
       id="path3031"
       d="m 510.22967,531.06212 c -0.50312,-27.6837 -23.62753,-56.53678 -46.36616,-65.5567 -14.99558,-5.82689 -46.45303,-23.61898 -64.85883,-11.63275 -13.06671,8.5093 -11.06797,45.45133 -11.06797,45.45133"
       style="fill:none;stroke:#000000;stroke-width:0.93749994px;stroke-linecap:butt;stroke-linejoin:miter;stroke-opacity:1" />
    <text
       xml:space="preserve"
       style="font-style:normal;font-weight:normal;font-size:7.8917613px;line-height:0%;font-family:sans-serif;letter-spacing:0px;word-spacing:0px;fill:#000000;fill-opacity:1;stroke:none;stroke-width:0.65764683"
       x="402.08347"
       y="464.70694"
       id="text149461-3-5-1"><tspan
         id="tspan2173-2"
         sodipodi:role="line"
         x="402.08347"
         y="464.70694"
         style="font-style:normal;font-variant:normal;font-weight:bold;font-stretch:normal;font-size:13.15293598px;line-height:1.25;font-family:'URW Palladio L';-inkscape-font-specification:'URW Palladio L Bold';text-align:start;text-anchor:start;stroke-width:0.65764683">Débit massique de</tspan><tspan
         id="tspan3184-0"
         sodipodi:role="line"
         x="402.08347"
         y="481.1481"
         style="font-style:normal;font-variant:normal;font-weight:bold;font-stretch:normal;font-size:13.15293598px;line-height:1.25;font-family:'URW Palladio L';-inkscape-font-specification:'URW Palladio L Bold';text-align:start;text-anchor:start;stroke-width:0.65764683">fonte de la cuve</tspan></text>
    <g
       transform="translate(211.18502,366.96947)"
       id="g3291">
      <g
         style="font-style:normal;font-variant:normal;font-weight:normal;font-stretch:normal;letter-spacing:normal;word-spacing:normal;text-anchor:start;fill:none;fill-opacity:1;fill-rule:evenodd;stroke:#000000;stroke-linecap:butt;stroke-linejoin:miter;stroke-miterlimit:10.43299961;stroke-dasharray:none;stroke-dashoffset:0;stroke-opacity:1"
         word-spacing="normal"
         letter-spacing="normal"
         font-size-adjust="none"
         font-stretch="normal"
         font-weight="normal"
         font-variant="normal"
         font-style="normal"
         stroke-miterlimit="10.433"
         xml:space="preserve"
         transform="matrix(0.39844984,0,0,-0.39844984,-69.728723,300.80001)"
         id="g3289"><path
           style="fill:#000000;stroke-width:0"
           inkscape:connector-curvature="0"
           id="path3273"
           d="m 480.08,436.89 v 0.12 l -0.01,0.13 -0.02,0.12 -0.02,0.13 -0.03,0.12 -0.03,0.12 -0.04,0.12 -0.05,0.12 -0.05,0.11 -0.06,0.11 -0.06,0.11 -0.07,0.11 -0.07,0.11 -0.08,0.1 -0.08,0.1 -0.09,0.09 -0.09,0.09 -0.09,0.09 -0.1,0.08 -0.1,0.08 -0.11,0.07 -0.11,0.07 -0.12,0.06 -0.11,0.05 -0.12,0.05 -0.13,0.05 -0.13,0.04 -0.12,0.03 -0.14,0.02 -0.13,0.02 -0.14,0.01 -0.14,0.01 c -1.69,0 -2.69,-1.39 -2.69,-2.64 0,-1.35 1.14,-2.64 2.64,-2.64 1.69,0 2.69,1.39 2.69,2.64 z" /><path
           style="fill:#000000;stroke-width:0"
           inkscape:connector-curvature="0"
           id="path3275"
           d="m 459.91,409.14 -0.02,-0.07 -0.01,-0.08 -0.02,-0.07 -0.02,-0.08 -0.03,-0.16 -0.04,-0.16 -0.04,-0.16 -0.04,-0.16 -0.03,-0.16 -0.04,-0.16 -0.02,-0.08 -0.01,-0.07 -0.02,-0.07 -0.01,-0.07 -0.02,-0.07 -0.01,-0.07 -0.02,-0.06 -0.01,-0.06 -0.01,-0.06 -0.01,-0.05 -0.01,-0.05 v -0.04 l -0.01,-0.04 v -0.04 l -0.01,-0.03 V 407 c 0,-0.89 0.71,-1.35 1.44,-1.35 0.61,0 1.5,0.39 1.84,1.39 0.07,0.11 0.66,2.44 0.96,3.69 l 1.09,4.48 c 0.3,1.1 0.6,2.19 0.84,3.35 0.21,0.84 0.61,2.28 0.66,2.48 0.75,1.55 3.39,6.08 8.11,6.08 2.25,0 2.7,-1.84 2.7,-3.48 0,-1.25 -0.36,-2.64 -0.75,-4.14 l -1.39,-5.79 -1,-3.78 c -0.2,-1 -0.65,-2.68 -0.65,-2.93 0,-0.89 0.7,-1.35 1.45,-1.35 1.55,0 1.84,1.25 2.23,2.85 0.71,2.78 2.55,10.06 3,12 0.14,0.65 2.79,6.62 8.22,6.62 2.14,0 2.69,-1.69 2.69,-3.48 0,-2.85 -2.09,-8.52 -3.09,-11.16 -0.46,-1.2 -0.64,-1.75 -0.64,-2.75 0,-2.33 1.73,-4.08 4.07,-4.08 4.69,0 6.54,7.27 6.54,7.67 0,0.5 -0.46,0.5 -0.6,0.5 -0.5,0 -0.5,-0.15 -0.75,-0.9 -0.75,-2.64 -2.34,-6.17 -5.08,-6.17 -0.86,0 -1.2,0.5 -1.2,1.64 0,1.25 0.45,2.45 0.89,3.54 0.95,2.58 3.05,8.11 3.05,10.96 0,3.23 -2,5.32 -5.74,5.32 -3.73,0 -6.26,-2.18 -8.11,-4.82 -0.06,0.65 -0.2,2.34 -1.61,3.53 -1.23,1.04 -2.82,1.29 -4.07,1.29 -4.49,0 -6.93,-3.18 -7.77,-4.32 -0.25,2.84 -2.34,4.32 -4.59,4.32 -2.28,0 -3.24,-1.93 -3.69,-2.82 -0.89,-1.75 -1.55,-4.69 -1.55,-4.85 0,-0.5 0.5,-0.5 0.61,-0.5 0.5,0 0.55,0.07 0.85,1.16 0.84,3.53 1.84,5.92 3.64,5.92 0.79,0 1.54,-0.39 1.54,-2.28 0,-1.05 -0.15,-1.61 -0.79,-4.19 z" /><path
           style="fill:#000000;stroke-width:0"
           inkscape:connector-curvature="0"
           id="path3277"
           d="m 512.4,438.84 v 0.05 0.06 0.05 0.05 0.05 0.04 0.05 l -0.01,0.04 v 0.04 0.04 l -0.01,0.04 v 0.04 l -0.01,0.03 -0.01,0.04 -0.01,0.03 -0.01,0.03 -0.01,0.02 -0.01,0.03 -0.02,0.02 -0.02,0.03 -0.01,0.02 -0.03,0.02 -0.02,0.01 -0.02,0.02 -0.03,0.01 -0.03,0.01 -0.03,0.01 -0.03,0.01 h -0.02 l -0.02,0.01 h -0.02 -0.02 -0.02 l -0.02,0.01 h -0.02 -0.02 c -0.17,0 -0.25,0 -0.71,-0.43 -0.06,-0.03 -0.4,-0.34 -0.62,-0.53 -1.05,0.74 -2.36,0.96 -3.66,0.96 -4.98,0 -6.17,-2.63 -6.17,-4.36 0,-1.13 0.5,-2.02 1.33,-2.72 1.33,-1.16 2.66,-1.39 4.81,-1.75 1.74,-0.31 4.56,-0.8 4.56,-3.13 0,-1.36 -0.93,-2.97 -4.28,-2.97 -3.34,0 -4.56,2.21 -5.2,4.57 -0.09,0.45 -0.14,0.59 -0.62,0.59 -0.6,0 -0.6,-0.23 -0.6,-0.94 v -4.28 c 0,-0.59 0,-0.9 0.5,-0.9 0.31,0 0.97,0.73 1.67,1.5 1.53,-1.44 3.41,-1.5 4.25,-1.5 4.53,0 6.21,2.43 6.21,4.9 0,1.33 -0.6,2.38 -1.5,3.2 -1.33,1.22 -2.94,1.5 -4.16,1.72 -2.78,0.49 -5.05,0.91 -5.05,2.75 0,1.11 0.94,2.47 4.25,2.47 4.05,0 4.22,-2.83 4.28,-3.83 0.05,-0.39 0.46,-0.39 0.6,-0.39 0.59,0 0.59,0.25 0.59,0.91 z" /><path
           style="fill:#000000;stroke-width:0"
           inkscape:connector-curvature="0"
           id="path3279"
           d="m 522.04,437.96 h 5.44 v 1.25 h -5.44 v 6.41 h -1.19 c -0.03,-3.12 -1.45,-6.58 -4.8,-6.69 v -0.97 h 3.24 v -9.4 c 0,-3.91 2.92,-4.7 4.87,-4.7 2.35,0 3.94,1.98 3.94,4.73 v 1.92 h -1.19 v -1.89 c 0,-2.36 -1.11,-3.66 -2.46,-3.66 -2.41,0 -2.41,2.93 -2.41,3.57 z" /><path
           style="fill:#000000;stroke-width:0"
           inkscape:connector-curvature="0"
           id="path3281"
           d="m 537.57,432.14 0.01,0.27 0.01,0.28 0.02,0.28 0.03,0.29 0.04,0.28 0.04,0.28 0.06,0.28 0.06,0.28 0.07,0.28 0.08,0.28 0.09,0.26 0.1,0.27 0.11,0.26 0.11,0.25 0.13,0.25 0.14,0.23 0.14,0.23 0.16,0.22 0.17,0.21 0.17,0.2 0.19,0.19 0.19,0.17 0.21,0.17 0.22,0.14 0.23,0.14 0.23,0.12 0.25,0.1 0.26,0.08 0.28,0.07 0.28,0.05 0.29,0.03 0.31,0.01 c -0.32,-0.25 -0.6,-0.7 -0.6,-1.25 0,-1.16 0.91,-1.61 1.57,-1.61 0.84,0 1.6,0.56 1.6,1.61 0,1.19 -1.12,2.22 -2.76,2.22 -1.74,0 -3.66,-1.08 -4.71,-3.72 h -0.03 v 3.72 l -4.98,-0.38 v -1.25 c 2.34,0 2.63,-0.25 2.63,-1.95 v -9.03 c 0,-1.5 -0.37,-1.5 -2.63,-1.5 v -1.25 c 0.17,0 2.55,0.14 3.97,0.14 1.5,0 3.04,-0.08 4.53,-0.14 v 1.25 h -0.69 c -2.58,0 -2.58,0.39 -2.58,1.58 z" /><path
           style="fill:#000000;stroke-width:0"
           inkscape:connector-curvature="0"
           id="path3283"
           d="m 558.81,439.18 v -1.25 c 2.33,0 2.61,-0.25 2.61,-1.95 v -5.97 c 0,-3.06 -1.98,-5.19 -4.62,-5.19 -3.18,0 -3.32,1.5 -3.32,3.29 v 11.45 l -5.37,-0.38 v -1.25 c 2.62,0 2.62,-0.11 2.62,-3.22 v -5.21 c 0,-2.41 0,-5.64 5.82,-5.64 0.76,0 3.31,0 4.98,2.92 h 0.03 v -2.92 l 5.24,0.34 v 1.25 c -2.35,0 -2.63,0.25 -2.63,1.95 v 12.16 z" /><path
           style="fill:#000000;stroke-width:0"
           inkscape:connector-curvature="0"
           id="path3285"
           d="m 581.74,438.11 -0.06,-0.03 -0.06,-0.03 -0.05,-0.03 -0.05,-0.03 -0.05,-0.04 -0.05,-0.03 -0.05,-0.04 -0.05,-0.04 -0.04,-0.04 -0.04,-0.04 -0.04,-0.04 -0.04,-0.04 -0.04,-0.05 -0.04,-0.04 -0.03,-0.05 -0.03,-0.05 -0.03,-0.05 -0.03,-0.05 -0.02,-0.05 -0.03,-0.05 -0.02,-0.06 -0.02,-0.05 -0.02,-0.06 -0.02,-0.06 -0.01,-0.05 -0.01,-0.06 -0.02,-0.06 v -0.06 l -0.01,-0.07 -0.01,-0.06 v -0.06 -0.07 c 0,-0.95 0.66,-1.64 1.64,-1.64 0.94,0 1.67,0.6 1.67,1.71 0,3.11 -4.84,3.11 -5.83,3.11 -5.22,0 -8.45,-4.02 -8.45,-8.02 0,-4.39 3.72,-7.87 8.28,-7.87 5.2,0 6.42,4.1 6.42,4.53 0,0.4 -0.45,0.4 -0.59,0.4 -0.45,0 -0.48,-0.09 -0.67,-0.59 -0.77,-2.16 -2.61,-3.24 -4.74,-3.24 -2.4,0 -5.53,1.79 -5.53,6.8 0,4.42 2.16,6.86 5.39,6.86 0.46,0 2.13,0 3.38,-0.51 z" /><path
           style="fill:#000000;stroke-width:0"
           inkscape:connector-curvature="0"
           id="path3287"
           d="m 592.95,437.96 h 5.44 v 1.25 h -5.44 v 6.41 h -1.19 c -0.03,-3.12 -1.45,-6.58 -4.79,-6.69 v -0.97 h 3.23 v -9.4 c 0,-3.91 2.92,-4.7 4.87,-4.7 2.35,0 3.94,1.98 3.94,4.73 v 1.92 h -1.19 v -1.89 c 0,-2.36 -1.1,-3.66 -2.47,-3.66 -2.4,0 -2.4,2.93 -2.4,3.57 z" /></g>    </g>
    <g
       transform="translate(311.56892,360.34034)"
       id="g3793">
      <g
         style="font-style:normal;font-variant:normal;font-weight:normal;font-stretch:normal;letter-spacing:normal;word-spacing:normal;text-anchor:start;fill:none;fill-opacity:1;fill-rule:evenodd;stroke:#000000;stroke-linecap:butt;stroke-linejoin:miter;stroke-miterlimit:10.43299961;stroke-dasharray:none;stroke-dashoffset:0;stroke-opacity:1"
         id="g3791"
         transform="matrix(0.39844984,0,0,-0.39844984,-69.728723,300.80001)"
         xml:space="preserve"
         stroke-miterlimit="10.433"
         font-style="normal"
         font-variant="normal"
         font-weight="normal"
         font-stretch="normal"
         font-size-adjust="none"
         letter-spacing="normal"
         word-spacing="normal"><path
           style="fill:#000000;stroke-width:0"
           inkscape:connector-curvature="0"
           d="m 480.08,436.89 v 0.12 l -0.01,0.13 -0.02,0.12 -0.02,0.13 -0.03,0.12 -0.03,0.12 -0.04,0.12 -0.05,0.12 -0.05,0.11 -0.06,0.11 -0.06,0.11 -0.07,0.11 -0.07,0.11 -0.08,0.1 -0.08,0.1 -0.09,0.09 -0.09,0.09 -0.09,0.09 -0.1,0.08 -0.1,0.08 -0.11,0.07 -0.11,0.07 -0.12,0.06 -0.11,0.05 -0.12,0.05 -0.13,0.05 -0.13,0.04 -0.12,0.03 -0.14,0.02 -0.13,0.02 -0.14,0.01 -0.14,0.01 c -1.69,0 -2.69,-1.39 -2.69,-2.64 0,-1.35 1.14,-2.64 2.64,-2.64 1.69,0 2.69,1.39 2.69,2.64 z"
           id="path3779" /><path
           style="fill:#000000;stroke-width:0"
           inkscape:connector-curvature="0"
           d="m 459.91,409.14 -0.02,-0.07 -0.01,-0.08 -0.02,-0.07 -0.02,-0.08 -0.03,-0.16 -0.04,-0.16 -0.04,-0.16 -0.04,-0.16 -0.03,-0.16 -0.04,-0.16 -0.02,-0.08 -0.01,-0.07 -0.02,-0.07 -0.01,-0.07 -0.02,-0.07 -0.01,-0.07 -0.02,-0.06 -0.01,-0.06 -0.01,-0.06 -0.01,-0.05 -0.01,-0.05 v -0.04 l -0.01,-0.04 v -0.04 l -0.01,-0.03 V 407 c 0,-0.89 0.71,-1.35 1.44,-1.35 0.61,0 1.5,0.39 1.84,1.39 0.07,0.11 0.66,2.44 0.96,3.69 l 1.09,4.48 c 0.3,1.1 0.6,2.19 0.84,3.35 0.21,0.84 0.61,2.28 0.66,2.48 0.75,1.55 3.39,6.08 8.11,6.08 2.25,0 2.7,-1.84 2.7,-3.48 0,-1.25 -0.36,-2.64 -0.75,-4.14 l -1.39,-5.79 -1,-3.78 c -0.2,-1 -0.65,-2.68 -0.65,-2.93 0,-0.89 0.7,-1.35 1.45,-1.35 1.55,0 1.84,1.25 2.23,2.85 0.71,2.78 2.55,10.06 3,12 0.14,0.65 2.79,6.62 8.22,6.62 2.14,0 2.69,-1.69 2.69,-3.48 0,-2.85 -2.09,-8.52 -3.09,-11.16 -0.46,-1.2 -0.64,-1.75 -0.64,-2.75 0,-2.33 1.73,-4.08 4.07,-4.08 4.69,0 6.54,7.27 6.54,7.67 0,0.5 -0.46,0.5 -0.6,0.5 -0.5,0 -0.5,-0.15 -0.75,-0.9 -0.75,-2.64 -2.34,-6.17 -5.08,-6.17 -0.86,0 -1.2,0.5 -1.2,1.64 0,1.25 0.45,2.45 0.89,3.54 0.95,2.58 3.05,8.11 3.05,10.96 0,3.23 -2,5.32 -5.74,5.32 -3.73,0 -6.26,-2.18 -8.11,-4.82 -0.06,0.65 -0.2,2.34 -1.61,3.53 -1.23,1.04 -2.82,1.29 -4.07,1.29 -4.49,0 -6.93,-3.18 -7.77,-4.32 -0.25,2.84 -2.34,4.32 -4.59,4.32 -2.28,0 -3.24,-1.93 -3.69,-2.82 -0.89,-1.75 -1.55,-4.69 -1.55,-4.85 0,-0.5 0.5,-0.5 0.61,-0.5 0.5,0 0.55,0.07 0.85,1.16 0.84,3.53 1.84,5.92 3.64,5.92 0.79,0 1.54,-0.39 1.54,-2.28 0,-1.05 -0.15,-1.61 -0.79,-4.19 z"
           id="path3781" /><path
           style="fill:#000000;stroke-width:0"
           inkscape:connector-curvature="0"
           d="m 512.75,438.11 -0.06,-0.03 -0.06,-0.03 -0.05,-0.03 -0.06,-0.03 -0.05,-0.04 -0.05,-0.03 -0.04,-0.04 -0.05,-0.04 -0.04,-0.04 -0.05,-0.04 -0.04,-0.04 -0.04,-0.04 -0.03,-0.05 -0.04,-0.04 -0.03,-0.05 -0.03,-0.05 -0.03,-0.05 -0.03,-0.05 -0.03,-0.05 -0.02,-0.05 -0.02,-0.06 -0.02,-0.05 -0.02,-0.06 -0.02,-0.06 -0.01,-0.05 -0.02,-0.06 -0.01,-0.06 -0.01,-0.06 v -0.07 l -0.01,-0.06 v -0.06 -0.07 c 0,-0.95 0.65,-1.64 1.64,-1.64 0.93,0 1.67,0.6 1.67,1.71 0,3.11 -4.84,3.11 -5.83,3.11 -5.22,0 -8.45,-4.02 -8.45,-8.02 0,-4.39 3.72,-7.87 8.28,-7.87 5.2,0 6.42,4.1 6.42,4.53 0,0.4 -0.45,0.4 -0.59,0.4 -0.45,0 -0.49,-0.09 -0.67,-0.59 -0.77,-2.16 -2.61,-3.24 -4.74,-3.24 -2.4,0 -5.53,1.79 -5.53,6.8 0,4.42 2.16,6.86 5.39,6.86 0.45,0 2.13,0 3.38,-0.51 z"
           id="path3783" /><path
           style="fill:#000000;stroke-width:0"
           inkscape:connector-curvature="0"
           d="m 529.53,439.18 v -1.25 c 2.33,0 2.62,-0.25 2.62,-1.95 v -5.97 c 0,-3.06 -1.99,-5.19 -4.63,-5.19 -3.17,0 -3.31,1.5 -3.31,3.29 v 11.45 l -5.38,-0.38 v -1.25 c 2.63,0 2.63,-0.11 2.63,-3.22 v -5.21 c 0,-2.41 0,-5.64 5.81,-5.64 0.76,0 3.31,0 4.98,2.92 h 0.03 v -2.92 l 5.24,0.34 v 1.25 c -2.34,0 -2.62,0.25 -2.62,1.95 v 12.16 z"
           id="path3785" /><path
           style="fill:#000000;stroke-width:0"
           inkscape:connector-curvature="0"
           d="m 555.43,435.81 0.05,0.1 0.04,0.09 0.05,0.09 0.05,0.09 0.05,0.09 0.05,0.08 0.11,0.16 0.1,0.15 0.11,0.14 0.12,0.12 0.11,0.12 0.12,0.11 0.12,0.1 0.12,0.09 0.12,0.09 0.11,0.07 0.12,0.07 0.12,0.06 0.12,0.05 0.12,0.05 0.12,0.04 0.11,0.04 0.11,0.03 0.11,0.03 0.11,0.02 0.1,0.02 0.1,0.02 0.09,0.01 0.09,0.01 h 0.09 l 0.08,0.01 h 0.07 0.07 0.06 0.06 v 1.25 c -0.87,-0.06 -1.78,-0.14 -2.66,-0.14 -0.93,0 -2.23,0.04 -3.17,0.14 v -1.25 c 1.47,-0.07 1.47,-1.21 1.47,-1.32 0,-0.18 -0.03,-0.52 -0.28,-1.02 l -3.94,-8.59 -4.31,9.47 c 0,0.03 -0.22,0.42 -0.22,0.67 0,0.79 1.19,0.79 1.78,0.79 v 1.25 c -0.08,0 -2.54,-0.14 -3.97,-0.14 -1.04,0 -2.4,0.04 -3.42,0.14 v -1.25 c 1.92,0 2.35,-0.07 2.86,-1.25 l 5.5,-12.12 c 0.17,-0.42 0.39,-0.73 0.99,-0.73 0.65,0 0.79,0.31 0.96,0.68 z"
           id="path3787" /><path
           style="fill:#000000;stroke-width:0"
           inkscape:connector-curvature="0"
           d="m 574.04,432.14 h 0.07 0.07 0.06 0.06 0.05 0.06 l 0.05,0.01 h 0.05 0.04 l 0.05,0.01 0.04,0.01 0.04,0.01 0.03,0.01 0.04,0.01 0.03,0.02 0.03,0.01 0.03,0.02 0.02,0.03 0.03,0.02 0.02,0.03 0.02,0.03 0.02,0.03 v 0.02 l 0.01,0.02 0.01,0.02 0.01,0.02 v 0.02 l 0.01,0.02 v 0.02 l 0.01,0.03 v 0.02 l 0.01,0.03 v 0.02 0.03 l 0.01,0.03 v 0.03 0.03 0.03 l 0.01,0.03 v 0.04 0.03 0.04 c 0,3.06 -1.72,6.83 -6.91,6.83 -4.56,0 -8.05,-3.63 -8.05,-7.93 0,-4.42 3.88,-7.96 8.5,-7.96 4.71,0 6.46,3.76 6.46,4.53 0,0.14 -0.08,0.48 -0.6,0.48 -0.45,0 -0.53,-0.22 -0.62,-0.56 -1.09,-2.81 -3.74,-3.35 -4.99,-3.35 -1.64,0 -3.2,0.74 -4.25,2.07 -1.29,1.62 -1.32,3.75 -1.32,5.11 l 0.03,0.9 c 0.39,4.92 3.51,5.72 4.84,5.72 4.28,0 4.42,-4.84 4.47,-5.72 h -9.31 l -0.03,-0.9 z"
           id="path3789" /></g>    </g>
    <g
       id="g3988"
       transform="translate(209.57651,403.90317)">
      <g
         word-spacing="normal"
         letter-spacing="normal"
         font-size-adjust="none"
         font-stretch="normal"
         font-weight="normal"
         font-variant="normal"
         font-style="normal"
         stroke-miterlimit="10.433"
         xml:space="preserve"
         transform="matrix(0.39844984,0,0,-0.39844984,-69.728723,300.80001)"
         id="g3986"
         style="font-style:normal;font-variant:normal;font-weight:normal;font-stretch:normal;letter-spacing:normal;word-spacing:normal;text-anchor:start;fill:none;fill-opacity:1;fill-rule:evenodd;stroke:#000000;stroke-linecap:butt;stroke-linejoin:miter;stroke-miterlimit:10.43299961;stroke-dasharray:none;stroke-dashoffset:0;stroke-opacity:1"><path
           id="path3970"
           d="m 480.08,436.89 v 0.12 l -0.01,0.13 -0.02,0.12 -0.02,0.13 -0.03,0.12 -0.03,0.12 -0.04,0.12 -0.05,0.12 -0.05,0.11 -0.06,0.11 -0.06,0.11 -0.07,0.11 -0.07,0.11 -0.08,0.1 -0.08,0.1 -0.09,0.09 -0.09,0.09 -0.09,0.09 -0.1,0.08 -0.1,0.08 -0.11,0.07 -0.11,0.07 -0.12,0.06 -0.11,0.05 -0.12,0.05 -0.13,0.05 -0.13,0.04 -0.12,0.03 -0.14,0.02 -0.13,0.02 -0.14,0.01 -0.14,0.01 c -1.69,0 -2.69,-1.39 -2.69,-2.64 0,-1.35 1.14,-2.64 2.64,-2.64 1.69,0 2.69,1.39 2.69,2.64 z"
           inkscape:connector-curvature="0"
           style="fill:#000000;stroke-width:0" /><path
           id="path3972"
           d="m 459.91,409.14 -0.02,-0.07 -0.01,-0.08 -0.02,-0.07 -0.02,-0.08 -0.03,-0.16 -0.04,-0.16 -0.04,-0.16 -0.04,-0.16 -0.03,-0.16 -0.04,-0.16 -0.02,-0.08 -0.01,-0.07 -0.02,-0.07 -0.01,-0.07 -0.02,-0.07 -0.01,-0.07 -0.02,-0.06 -0.01,-0.06 -0.01,-0.06 -0.01,-0.05 -0.01,-0.05 v -0.04 l -0.01,-0.04 v -0.04 l -0.01,-0.03 V 407 c 0,-0.89 0.71,-1.35 1.44,-1.35 0.61,0 1.5,0.39 1.84,1.39 0.07,0.11 0.66,2.44 0.96,3.69 l 1.09,4.48 c 0.3,1.1 0.6,2.19 0.84,3.35 0.21,0.84 0.61,2.28 0.66,2.48 0.75,1.55 3.39,6.08 8.11,6.08 2.25,0 2.7,-1.84 2.7,-3.48 0,-1.25 -0.36,-2.64 -0.75,-4.14 l -1.39,-5.79 -1,-3.78 c -0.2,-1 -0.65,-2.68 -0.65,-2.93 0,-0.89 0.7,-1.35 1.45,-1.35 1.55,0 1.84,1.25 2.23,2.85 0.71,2.78 2.55,10.06 3,12 0.14,0.65 2.79,6.62 8.22,6.62 2.14,0 2.69,-1.69 2.69,-3.48 0,-2.85 -2.09,-8.52 -3.09,-11.16 -0.46,-1.2 -0.64,-1.75 -0.64,-2.75 0,-2.33 1.73,-4.08 4.07,-4.08 4.69,0 6.54,7.27 6.54,7.67 0,0.5 -0.46,0.5 -0.6,0.5 -0.5,0 -0.5,-0.15 -0.75,-0.9 -0.75,-2.64 -2.34,-6.17 -5.08,-6.17 -0.86,0 -1.2,0.5 -1.2,1.64 0,1.25 0.45,2.45 0.89,3.54 0.95,2.58 3.05,8.11 3.05,10.96 0,3.23 -2,5.32 -5.74,5.32 -3.73,0 -6.26,-2.18 -8.11,-4.82 -0.06,0.65 -0.2,2.34 -1.61,3.53 -1.23,1.04 -2.82,1.29 -4.07,1.29 -4.49,0 -6.93,-3.18 -7.77,-4.32 -0.25,2.84 -2.34,4.32 -4.59,4.32 -2.28,0 -3.24,-1.93 -3.69,-2.82 -0.89,-1.75 -1.55,-4.69 -1.55,-4.85 0,-0.5 0.5,-0.5 0.61,-0.5 0.5,0 0.55,0.07 0.85,1.16 0.84,3.53 1.84,5.92 3.64,5.92 0.79,0 1.54,-0.39 1.54,-2.28 0,-1.05 -0.15,-1.61 -0.79,-4.19 z"
           inkscape:connector-curvature="0"
           style="fill:#000000;stroke-width:0" /><path
           id="path3974"
           d="m 512.75,438.11 -0.06,-0.03 -0.06,-0.03 -0.05,-0.03 -0.06,-0.03 -0.05,-0.04 -0.05,-0.03 -0.04,-0.04 -0.05,-0.04 -0.04,-0.04 -0.05,-0.04 -0.04,-0.04 -0.04,-0.04 -0.03,-0.05 -0.04,-0.04 -0.03,-0.05 -0.03,-0.05 -0.03,-0.05 -0.03,-0.05 -0.03,-0.05 -0.02,-0.05 -0.02,-0.06 -0.02,-0.05 -0.02,-0.06 -0.02,-0.06 -0.01,-0.05 -0.02,-0.06 -0.01,-0.06 -0.01,-0.06 v -0.07 l -0.01,-0.06 v -0.06 -0.07 c 0,-0.95 0.65,-1.64 1.64,-1.64 0.93,0 1.67,0.6 1.67,1.71 0,3.11 -4.84,3.11 -5.83,3.11 -5.22,0 -8.45,-4.02 -8.45,-8.02 0,-4.39 3.72,-7.87 8.28,-7.87 5.2,0 6.42,4.1 6.42,4.53 0,0.4 -0.45,0.4 -0.59,0.4 -0.45,0 -0.49,-0.09 -0.67,-0.59 -0.77,-2.16 -2.61,-3.24 -4.74,-3.24 -2.4,0 -5.53,1.79 -5.53,6.8 0,4.42 2.16,6.86 5.39,6.86 0.45,0 2.13,0 3.38,-0.51 z"
           inkscape:connector-curvature="0"
           style="fill:#000000;stroke-width:0" /><path
           id="path3976"
           d="m 523.9,432.14 v 0.27 l 0.01,0.28 0.02,0.28 0.03,0.29 0.04,0.28 0.04,0.28 0.06,0.28 0.06,0.28 0.07,0.28 0.08,0.28 0.09,0.26 0.1,0.27 0.11,0.26 0.12,0.25 0.12,0.25 0.14,0.23 0.14,0.23 0.16,0.22 0.17,0.21 0.17,0.2 0.19,0.19 0.2,0.17 0.2,0.17 0.22,0.14 0.23,0.14 0.24,0.12 0.24,0.1 0.26,0.08 0.28,0.07 0.28,0.05 0.29,0.03 0.31,0.01 c -0.32,-0.25 -0.6,-0.7 -0.6,-1.25 0,-1.16 0.91,-1.61 1.56,-1.61 0.85,0 1.62,0.56 1.62,1.61 0,1.19 -1.13,2.22 -2.77,2.22 -1.73,0 -3.66,-1.08 -4.7,-3.72 h -0.03 v 3.72 l -4.99,-0.38 v -1.25 c 2.34,0 2.62,-0.25 2.62,-1.95 v -9.03 c 0,-1.5 -0.35,-1.5 -2.62,-1.5 v -1.25 c 0.17,0 2.55,0.14 3.97,0.14 1.5,0 3.05,-0.08 4.53,-0.14 v 1.25 h -0.69 c -2.57,0 -2.57,0.39 -2.57,1.58 z"
           inkscape:connector-curvature="0"
           style="fill:#000000;stroke-width:0" /><path
           id="path3978"
           d="m 550.99,431.62 -0.01,0.41 -0.03,0.4 -0.05,0.4 -0.08,0.39 -0.09,0.39 -0.11,0.38 -0.14,0.37 -0.15,0.37 -0.17,0.36 -0.18,0.35 -0.2,0.34 -0.22,0.33 -0.24,0.32 -0.25,0.31 -0.27,0.29 -0.28,0.29 -0.29,0.27 -0.31,0.26 -0.32,0.24 -0.34,0.23 -0.34,0.22 -0.36,0.2 -0.37,0.18 -0.38,0.17 -0.39,0.15 -0.4,0.13 -0.41,0.11 -0.42,0.1 -0.42,0.07 -0.44,0.05 -0.44,0.04 -0.44,0.01 v -0.99 c 2.06,0 3.53,-0.97 4.29,-2.05 0.97,-1.35 1.08,-3.1 1.08,-4.78 0,-1.67 -0.11,-3.51 -1.12,-4.95 -0.94,-1.31 -2.54,-2.02 -4.25,-2.02 v 0 c -1.29,0 -3.18,0.43 -4.32,2.13 -0.93,1.44 -1.04,3.23 -1.04,4.84 0,1.5 0.03,3.57 1.25,5.05 0.87,1.02 2.34,1.78 4.11,1.78 v 0.99 c -4.8,0 -8.54,-3.77 -8.54,-8.13 0,-4.33 3.83,-7.76 8.54,-7.76 4.7,0 8.54,3.43 8.54,7.76 z"
           inkscape:connector-curvature="0"
           style="fill:#000000;stroke-width:0" /><path
           id="path3980"
           d="m 564.93,439.18 v -1.25 c 2.33,0 2.61,-0.25 2.61,-1.95 v -5.97 c 0,-3.06 -1.99,-5.19 -4.63,-5.19 -3.17,0 -3.31,1.5 -3.31,3.29 v 11.45 l -5.37,-0.38 v -1.25 c 2.62,0 2.62,-0.11 2.62,-3.22 v -5.21 c 0,-2.41 0,-5.64 5.81,-5.64 0.77,0 3.32,0 4.99,2.92 h 0.03 v -2.92 l 5.23,0.34 v 1.25 c -2.34,0 -2.62,0.25 -2.62,1.95 v 12.16 z"
           inkscape:connector-curvature="0"
           style="fill:#000000;stroke-width:0" /><path
           id="path3982"
           d="m 581.31,437.96 h 5.44 v 1.25 h -5.44 v 6.41 h -1.19 c -0.03,-3.12 -1.45,-6.58 -4.8,-6.69 v -0.97 h 3.24 v -9.4 c 0,-3.91 2.92,-4.7 4.87,-4.7 2.35,0 3.94,1.98 3.94,4.73 v 1.92 h -1.19 v -1.89 c 0,-2.36 -1.11,-3.66 -2.46,-3.66 -2.41,0 -2.41,2.93 -2.41,3.57 z"
           inkscape:connector-curvature="0"
           style="fill:#000000;stroke-width:0" /><path
           id="path3984"
           d="m 605.23,432.14 h 0.07 0.07 0.06 0.06 0.05 0.06 l 0.05,0.01 h 0.05 0.04 l 0.05,0.01 0.04,0.01 0.04,0.01 0.04,0.01 0.03,0.01 0.03,0.02 0.03,0.01 0.03,0.02 0.03,0.03 0.02,0.02 0.02,0.03 0.02,0.03 0.02,0.03 0.01,0.02 v 0.02 l 0.01,0.02 0.01,0.02 v 0.02 l 0.01,0.02 0.01,0.02 v 0.03 l 0.01,0.02 v 0.03 0.02 l 0.01,0.03 v 0.03 0.03 0.03 l 0.01,0.03 v 0.03 0.04 0.03 0.04 c 0,3.06 -1.72,6.83 -6.91,6.83 -4.56,0 -8.04,-3.63 -8.04,-7.93 0,-4.42 3.87,-7.96 8.5,-7.96 4.7,0 6.45,3.76 6.45,4.53 0,0.14 -0.08,0.48 -0.6,0.48 -0.45,0 -0.53,-0.22 -0.62,-0.56 -1.09,-2.81 -3.73,-3.35 -4.98,-3.35 -1.64,0 -3.21,0.74 -4.25,2.07 -1.3,1.62 -1.33,3.75 -1.33,5.11 l 0.03,0.9 c 0.39,4.92 3.51,5.72 4.84,5.72 4.28,0 4.42,-4.84 4.47,-5.72 h -9.31 l -0.03,-0.9 z"
           inkscape:connector-curvature="0"
           style="fill:#000000;stroke-width:0" /></g>    </g>
    <path
       style="fill:none;stroke:#ff0000;stroke-width:0.93749994;stroke-linecap:butt;stroke-linejoin:miter;stroke-miterlimit:4;stroke-dasharray:none;stroke-opacity:1;marker-end:url(#marker1716-9)"
       d="m 473.72898,521.65243 26.10035,0.15539"
       id="path1182-6"
       inkscape:connector-curvature="0"
       sodipodi:nodetypes="cc" />
    <g
       id="g5112"
       transform="matrix(0.724028,0,0,0.724028,386.19573,440.30584)">
      <g
         word-spacing="normal"
         letter-spacing="normal"
         font-size-adjust="none"
         font-stretch="normal"
         font-weight="normal"
         font-variant="normal"
         font-style="normal"
         stroke-miterlimit="10.433"
         xml:space="preserve"
         transform="matrix(0.39844984,0,0,-0.39844984,-69.728723,300.80001)"
         id="g5110"
         style="font-style:normal;font-variant:normal;font-weight:normal;font-stretch:normal;letter-spacing:normal;word-spacing:normal;text-anchor:start;fill:none;fill-opacity:1;fill-rule:evenodd;stroke:#000000;stroke-linecap:butt;stroke-linejoin:miter;stroke-miterlimit:10.43299961;stroke-dasharray:none;stroke-dashoffset:0;stroke-opacity:1"><path
           id="path5090"
           d="m 477.29,439.57 v 0.01 0.01 0 0.01 0.01 0.01 0 0.01 l 0.01,0.02 v 0.03 0.02 l 0.01,0.02 0.01,0.03 v 0.03 l 0.01,0.02 v 0.03 l 0.01,0.03 0.01,0.03 0.01,0.06 0.02,0.06 v 0.03 l 0.01,0.02 0.01,0.03 v 0.03 l 0.01,0.02 0.01,0.02 v 0.02 l 0.01,0.02 v 0.01 0.01 0.01 0.01 h 0.01 v 0.01 0.01 0 0.01 0 0 0.01 c 0,0.04 0,0.5 -0.59,0.5 -0.5,0 -0.55,-0.16 -0.75,-1 l -2.89,-11.5 c -7.92,-0.25 -15.25,-6.88 -15.25,-13.66 0,-4.73 3.48,-8.67 9.56,-9.01 l 0.25,1.09 c -2.98,0.14 -6.58,1.89 -6.58,6.87 0,5.99 4.3,12.96 11.72,13.6 l -5.14,-20.47 -0.25,-1.09 c -0.39,-1.55 -0.73,-3.15 -1.14,-4.69 -0.59,-2.35 -1.09,-4.24 -1.09,-4.39 0,-0.49 0.34,-0.55 0.59,-0.55 0.25,0 0.36,0.06 0.5,0.2 0.09,0.1 0.41,1.3 0.55,2 l 1.89,7.43 0.25,1.09 5.14,20.47 c 3.78,-0.19 6.62,-2.49 6.62,-6.88 0,-5.87 -4.28,-13 -11.76,-13.59 l -0.25,-1.09 c 8.03,0.25 15.25,6.96 15.25,13.64 0,3.93 -2.64,8.53 -9.57,9.03 z"
           inkscape:connector-curvature="0"
           style="fill:#000000;stroke-width:0" /><path
           id="path5092"
           d="m 500.71,433.54 v 0.34 l -0.01,0.33 v 0.32 l -0.02,0.31 -0.01,0.15 -0.01,0.14 -0.02,0.15 -0.02,0.14 -0.02,0.15 -0.03,0.14 -0.03,0.13 -0.03,0.14 -0.04,0.14 -0.05,0.13 -0.05,0.13 -0.06,0.13 -0.06,0.13 -0.07,0.13 -0.07,0.12 -0.08,0.13 -0.09,0.12 -0.1,0.13 -0.1,0.12 -0.11,0.12 -0.12,0.12 -0.13,0.13 -0.14,0.12 -0.14,0.12 c -1.42,1.18 -3.1,1.75 -5.16,1.75 -3.31,0 -5.64,-1.27 -5.64,-3.39 0,-1.11 0.77,-1.71 1.67,-1.71 0.94,0 1.64,0.71 1.64,1.64 0,0.6 -0.28,1.33 -1.22,1.6 1.25,0.87 3.27,0.87 3.49,0.87 1.94,0 4.06,-1.28 4.06,-4.22 v -1.08 -0.9 -3.45 c 0,-3.35 -2.92,-4.29 -4.48,-4.29 -1.78,0 -3.46,1.19 -3.46,2.89 0,1.93 1.68,4.61 7.94,4.85 v 0.9 c -1.9,-0.06 -4.2,-0.17 -6.75,-1.1 -3.14,-1.16 -4.11,-3.07 -4.11,-4.65 0,-3 3.63,-3.85 6.1,-3.85 2.78,0 4.42,1.56 5.15,2.92 0.14,-1.42 1.08,-2.75 2.69,-2.75 0.06,0 3.44,0 3.44,3.31 v 1.91 h -1.17 v -1.88 c 0,-0.34 0,-2.01 -1.3,-2.01 -1.28,0 -1.28,1.62 -1.28,2.07 z"
           inkscape:connector-curvature="0"
           style="fill:#000000;stroke-width:0" /><path
           id="path5094"
           d="m 518.5,438.11 -0.05,-0.03 -0.06,-0.03 -0.05,-0.03 -0.06,-0.03 -0.05,-0.04 -0.05,-0.03 -0.05,-0.04 -0.04,-0.04 -0.05,-0.04 -0.04,-0.04 -0.04,-0.04 -0.04,-0.04 -0.03,-0.05 -0.04,-0.04 -0.03,-0.05 -0.03,-0.05 -0.03,-0.05 -0.03,-0.05 -0.03,-0.05 -0.02,-0.05 -0.03,-0.06 -0.02,-0.05 -0.01,-0.06 -0.02,-0.06 -0.02,-0.05 -0.01,-0.06 -0.01,-0.06 -0.01,-0.06 -0.01,-0.07 v -0.06 -0.06 l -0.01,-0.07 c 0,-0.95 0.66,-1.64 1.65,-1.64 0.93,0 1.67,0.6 1.67,1.71 0,3.11 -4.85,3.11 -5.83,3.11 -5.22,0 -8.45,-4.02 -8.45,-8.02 0,-4.39 3.72,-7.87 8.28,-7.87 5.2,0 6.42,4.1 6.42,4.53 0,0.4 -0.45,0.4 -0.59,0.4 -0.46,0 -0.49,-0.09 -0.68,-0.59 -0.76,-2.16 -2.6,-3.24 -4.73,-3.24 -2.41,0 -5.53,1.79 -5.53,6.8 0,4.42 2.15,6.86 5.39,6.86 0.45,0 2.12,0 3.37,-0.51 z"
           inkscape:connector-curvature="0"
           style="fill:#000000;stroke-width:0" /><path
           id="path5096"
           d="m 530.07,445.7 v 0.09 l -0.01,0.1 -0.01,0.09 -0.01,0.1 -0.03,0.09 -0.02,0.09 -0.03,0.09 -0.04,0.09 -0.04,0.08 -0.04,0.09 -0.04,0.08 -0.06,0.08 -0.05,0.08 -0.06,0.08 -0.06,0.07 -0.07,0.07 -0.07,0.07 -0.07,0.06 -0.07,0.07 -0.08,0.05 -0.08,0.06 -0.09,0.05 -0.09,0.04 -0.09,0.05 -0.09,0.03 -0.1,0.04 -0.1,0.03 -0.1,0.02 -0.1,0.02 -0.11,0.01 -0.11,0.01 h -0.11 c -1.04,0 -1.98,-0.82 -1.98,-1.98 0,-1.25 1.01,-2.02 1.98,-2.02 1.13,0 2.03,0.86 2.03,2.02 z"
           inkscape:connector-curvature="0"
           style="fill:#000000;stroke-width:0" /><path
           id="path5098"
           d="m 524.78,439.18 v -1.25 c 2.19,0 2.5,-0.22 2.5,-1.92 v -9.06 c 0,-1.5 -0.35,-1.5 -2.61,-1.5 v -1.25 c 0.06,0 2.5,0.14 3.9,0.14 1.22,0 2.47,-0.03 3.69,-0.14 v 1.25 c -2.01,0 -2.37,0 -2.37,1.47 v 12.64 z"
           inkscape:connector-curvature="0"
           style="fill:#000000;stroke-width:0" /><path
           id="path5100"
           d="m 549.32,432.14 h 0.07 0.06 0.06 0.06 0.06 0.05 l 0.06,0.01 h 0.04 0.05 l 0.04,0.01 0.05,0.01 0.03,0.01 0.04,0.01 0.04,0.01 0.03,0.02 0.03,0.01 0.03,0.02 0.02,0.03 0.03,0.02 0.02,0.03 0.02,0.03 0.01,0.03 0.01,0.02 0.01,0.02 0.01,0.02 v 0.02 l 0.01,0.02 0.01,0.02 v 0.02 l 0.01,0.03 v 0.02 l 0.01,0.03 v 0.02 0.03 l 0.01,0.03 v 0.03 0.03 0.03 0.03 0.04 0.03 0.04 c 0,3.06 -1.71,6.83 -6.9,6.83 -4.56,0 -8.05,-3.63 -8.05,-7.93 0,-4.42 3.88,-7.96 8.5,-7.96 4.7,0 6.45,3.76 6.45,4.53 0,0.14 -0.07,0.48 -0.59,0.48 -0.45,0 -0.53,-0.22 -0.62,-0.56 -1.1,-2.81 -3.74,-3.35 -4.99,-3.35 -1.64,0 -3.2,0.74 -4.25,2.07 -1.3,1.62 -1.33,3.75 -1.33,5.11 l 0.03,0.9 c 0.4,4.92 3.52,5.72 4.85,5.72 4.28,0 4.42,-4.84 4.47,-5.72 h -9.32 l -0.03,-0.9 z"
           inkscape:connector-curvature="0"
           style="fill:#000000;stroke-width:0" /><path
           id="path5102"
           d="m 558.69,432.14 v 0.27 l 0.01,0.28 0.02,0.28 0.03,0.29 0.04,0.28 0.05,0.28 0.05,0.28 0.06,0.28 0.07,0.28 0.08,0.28 0.09,0.26 0.1,0.27 0.11,0.26 0.12,0.25 0.12,0.25 0.14,0.23 0.15,0.23 0.15,0.22 0.17,0.21 0.18,0.2 0.18,0.19 0.2,0.17 0.2,0.17 0.22,0.14 0.23,0.14 0.24,0.12 0.25,0.1 0.26,0.08 0.27,0.07 0.28,0.05 0.29,0.03 0.31,0.01 c -0.31,-0.25 -0.59,-0.7 -0.59,-1.25 0,-1.16 0.9,-1.61 1.56,-1.61 0.84,0 1.61,0.56 1.61,1.61 0,1.19 -1.13,2.22 -2.77,2.22 -1.73,0 -3.65,-1.08 -4.7,-3.72 h -0.03 v 3.72 l -4.99,-0.38 v -1.25 c 2.35,0 2.63,-0.25 2.63,-1.95 v -9.03 c 0,-1.5 -0.36,-1.5 -2.63,-1.5 v -1.25 c 0.17,0 2.55,0.14 3.97,0.14 1.5,0 3.05,-0.08 4.53,-0.14 v 1.25 h -0.68 c -2.58,0 -2.58,0.39 -2.58,1.58 z"
           inkscape:connector-curvature="0"
           style="fill:#000000;stroke-width:0" /><path
           id="path5104"
           d="m 492.33,416.23 -5.22,-0.39 v -1.25 c 2.33,0 2.61,-0.25 2.61,-1.96 v -17.84 c 0,-1.5 -0.34,-1.5 -2.61,-1.5 v -1.25 c 0.07,0 2.5,0.14 3.91,0.14 1.31,0 2.61,-0.03 3.94,-0.14 v 1.25 c -2.27,0 -2.63,0 -2.63,1.5 z"
           inkscape:connector-curvature="0"
           style="fill:#000000;stroke-width:0" /><path
           id="path5106"
           d="m 511.98,401.38 v 0.34 0.33 l -0.01,0.32 -0.01,0.31 -0.01,0.15 -0.02,0.14 -0.01,0.15 -0.02,0.14 -0.02,0.15 -0.03,0.14 -0.03,0.13 -0.04,0.14 -0.04,0.14 -0.04,0.13 -0.05,0.13 -0.06,0.13 -0.06,0.13 -0.07,0.13 -0.07,0.12 -0.08,0.13 -0.09,0.12 -0.1,0.13 -0.1,0.12 -0.11,0.12 -0.12,0.12 -0.13,0.13 -0.14,0.12 -0.14,0.12 c -1.43,1.18 -3.1,1.75 -5.16,1.75 -3.31,0 -5.64,-1.27 -5.64,-3.39 0,-1.11 0.76,-1.71 1.67,-1.71 0.94,0 1.64,0.71 1.64,1.64 0,0.6 -0.28,1.33 -1.22,1.6 1.25,0.87 3.27,0.87 3.49,0.87 1.93,0 4.06,-1.28 4.06,-4.22 v -1.08 -0.9 -3.45 c 0,-3.35 -2.92,-4.29 -4.49,-4.29 -1.78,0 -3.45,1.19 -3.45,2.89 0,1.93 1.67,4.61 7.94,4.85 v 0.9 c -1.91,-0.06 -4.2,-0.17 -6.75,-1.1 -3.14,-1.16 -4.11,-3.07 -4.11,-4.65 0,-3 3.62,-3.85 6.09,-3.85 2.78,0 4.43,1.56 5.16,2.92 0.14,-1.42 1.08,-2.75 2.69,-2.75 0.06,0 3.43,0 3.43,3.31 v 1.91 h -1.17 v -1.88 c 0,-0.34 0,-2.01 -1.29,-2.01 -1.29,0 -1.29,1.62 -1.29,2.07 z"
           inkscape:connector-curvature="0"
           style="fill:#000000;stroke-width:0" /><path
           id="path5108"
           d="m 523.23,405.8 h 5.44 v 1.25 h -5.44 v 6.41 h -1.18 c -0.03,-3.12 -1.46,-6.58 -4.8,-6.69 v -0.97 h 3.23 v -9.4 c 0,-3.91 2.93,-4.7 4.88,-4.7 2.34,0 3.94,1.98 3.94,4.73 v 1.92 h -1.19 v -1.89 c 0,-2.36 -1.11,-3.66 -2.47,-3.66 -2.41,0 -2.41,2.93 -2.41,3.57 z"
           inkscape:connector-curvature="0"
           style="fill:#000000;stroke-width:0" /></g>    </g>
  </g>
</svg>
